<svg xmlns="http://www.w3.org/2000/svg" xmlns:svg="http://www.w3.org/2000/svg" xmlns:xlink="http://www.w3.org/1999/xlink" id="svg2" width="90" height="70" version="1.0"><defs id="defs4"><linearGradient id="linearGradient3214"><stop id="stop3216" offset="0" stop-color="#c6c600" stop-opacity="1"/><stop id="stop3218" offset="1" stop-color="#ff0" stop-opacity="1"/></linearGradient><linearGradient id="linearGradient3202"><stop id="stop3204" offset="0" stop-color="red" stop-opacity="1"/><stop id="stop3206" offset="1" stop-color="#bd0000" stop-opacity="1"/></linearGradient><linearGradient id="linearGradient3194"><stop id="stop3196" offset="0" stop-color="#dedede" stop-opacity="1"/><stop id="stop3198" offset="1" stop-color="#989898" stop-opacity="1"/></linearGradient><radialGradient id="radialGradient3200" cx="96.318" cy="50.202" r="17.31" fx="96.318" fy="50.202" gradientTransform="matrix(0.9858342,-8.3672021e-2,4.7596473e-2,0.83613,-1.0250201,16.006099)" gradientUnits="userSpaceOnUse" xlink:href="#linearGradient3194"/><linearGradient id="linearGradient3208" x1="42.241" x2="115.517" y1="32.741" y2="62.052" gradientTransform="translate(-32.758621,-3.8793108)" gradientUnits="userSpaceOnUse" xlink:href="#linearGradient3202"/><linearGradient id="linearGradient3220" x1="81.897" x2="32.328" y1="91.362" y2="56.858" gradientTransform="matrix(0.8787552,0.1419091,-0.1597537,0.9892554,-13.144554,-28.899574)" gradientUnits="userSpaceOnUse" xlink:href="#linearGradient3214"/><linearGradient id="linearGradient3226" x1="85.341" x2="37.249" y1="66.426" y2="95.64" gradientTransform="matrix(0.8685077,-0.1132563,-0.1394085,-1.0690568,-14.356174,105.14147)" gradientUnits="userSpaceOnUse" xlink:href="#linearGradient3214"/><linearGradient id="linearGradient3250" x1="15.448" x2="75.069" y1="24.052" y2="54.224" gradientUnits="userSpaceOnUse" xlink:href="#linearGradient3202"/></defs><metadata id="metadata7"/><g id="layer1"><path id="path3190" fill="url(#linearGradient3220)" fill-opacity="1" fill-rule="evenodd" stroke="#000" stroke-linecap="butt" stroke-linejoin="miter" stroke-opacity="1" stroke-width=".938" d="M 59.619254,50.730952 C 49.661045,70.037736 19.788566,69.897875 3.9900832,67.864348 C -7.7548013,66.515538 20.17388,59.495471 10.326386,42.733478 C 23.739518,53.606512 40.559383,49.266185 56.167631,51.777525 L 57.886308,51.427784 L 59.619254,50.730952 L 59.619254,50.730952 z"/><path id="path3224" fill="url(#linearGradient3226)" fill-opacity="1" fill-rule="evenodd" stroke="#000" stroke-linecap="butt" stroke-linejoin="miter" stroke-opacity="1" stroke-width=".965" d="M 58.79508,22.895256 C 49.333819,1.7268144 19.894984,0.54842438 4.2901585,2.0287804 C -7.3077901,2.9543654 20.801912,10.400856 10.793004,27.956675 C 24.208257,16.881149 39.986846,23.620004 55.412911,21.618269 L 57.100128,22.070145 L 58.79508,22.895256 L 58.79508,22.895256 z"/><path id="path3248" fill="url(#linearGradient3250)" stroke="#000" stroke-opacity="1" d="M 87.068966,45.172413 A 42.241379,16.379311 0 1 1 2.5862083,45.172413 A 42.241379,16.379311 0 1 1 87.068966,45.172413 z" opacity="1" transform="matrix(1.0050725,0,0,0.9999239,1.7122668,-9.4793183)"/><path id="path3192" fill="url(#radialGradient3200)" fill-opacity="1" stroke="#000" stroke-opacity="1" d="M 112.93103,48.474136 A 16.810345,14.00862 0 1 1 79.310345,48.474136 A 16.810345,14.00862 0 1 1 112.93103,48.474136 z" opacity="1" transform="matrix(1.1420454,0,0,0.8166083,-53.524193,-4.0412826)"/></g></svg>